# xmcd CD database file
# Copyright (C) 1993-1998 Ti Kan
#
# Track frame offsets:
#  150
#  9462
#  20930
#  29355
#  37710
#  51225
#  64977
#  73595
#  78630
#  89275
#  101572
#  109012
#  123150
#  132682
#  148900
#  162232
#
# Disc length: 2288 seconds
#
# Revision: 1
# Processed by: cddbd v1.4b41PL1 Copyright (c) Steve Scherf et al.
# Submitted via: KiC 2.1 - (C) 1996-1998 Alwin Hoogerdijk
#
DISCID=e108ee10
DTITLE=Riders In The Sky - Riders Go Comercial
DYEAR=1900
DGENRE=
TTITLE0=The Board Room
TTITLE1=Accordian Repare Course
TTITLE2=Studebaker
TTITLE3=Udder Fantastic
TTITLE4=A Side Of Opera
TTITLE5=Perfume, Passion And Polka
TTITLE6=The Queen Elizabeth Trio
TTITLE7=Polkaholism (PSA)
TTITLE8=Cow Paint And Body Shop
TTITLE9=Along The Navajo Trail
TTITLE10=There's A Blue Sky Way Out There
TTITLE11=Geezer Trainning Course
TTITLE12=No Rodeo Dough
TTITLE13=Riding The Old Front Range
TTITLE14=Ride With Me Gringo
TTITLE15=Toolkit In A Holster
EXTD=
EXTT0=
EXTT1=
EXTT2=
EXTT3=
EXTT4=
EXTT5=
EXTT6=
EXTT7=
EXTT8=
EXTT9=
EXTT10=
EXTT11=
EXTT12=
EXTT13=
EXTT14=
EXTT15=
PLAYORDER=
